<svg width="30" height="31" viewBox="0 0 30 31" fill="none" xmlns="http://www.w3.org/2000/svg">
<circle cx="15" cy="15.5" r="15" fill="#3c3963"/>
<path d="M14.5806 9.5C12.0562 9.5 10 11.5562 10 14.0806C10 16.6049 12.0562 18.6611 14.5806 18.6611C15.6783 18.6611 16.6864 18.2713 17.4765 17.6242L20.2114 20.3592C20.2537 20.4031 20.3042 20.4382 20.3601 20.4624C20.4161 20.4866 20.4763 20.4994 20.5372 20.5C20.5982 20.5006 20.6586 20.4891 20.715 20.466C20.7715 20.443 20.8227 20.4089 20.8658 20.3658C20.9089 20.3227 20.943 20.2715 20.966 20.215C20.9891 20.1586 21.0006 20.0982 21 20.0372C20.9994 19.9763 20.9866 19.9161 20.9624 19.8601C20.9382 19.8042 20.9031 19.7537 20.8592 19.7114L18.1242 16.9765C18.7713 16.1864 19.1611 15.1783 19.1611 14.0806C19.1611 11.5562 17.1049 9.5 14.5806 9.5ZM14.5806 10.4161C16.6098 10.4161 18.245 12.0513 18.245 14.0806C18.245 16.1098 16.6098 17.745 14.5806 17.745C12.5513 17.745 10.9161 16.1098 10.9161 14.0806C10.9161 12.0513 12.5513 10.4161 14.5806 10.4161Z" fill="#F7F7F7" stroke="#F7F7F7"/>
</svg>
